<svg height="128" viewBox="0 0 1024 1024" width="128" xmlns="http://www.w3.org/2000/svg"><path d="m0 512a512 512 0 1 0 1024 0 512 512 0 1 0 -1024 0z" fill="#ebeffa"/><path d="m512 1024c139.3 0 265.7-55.7 358-146-7.9-30.3-16.8-55.6-26.8-68.2-40-50-221.6-74.4-221.6-74.4l-109.6 29.5-109.4-29.4s-180.6 23.8-220.6 73.8c-10.1 12.7-19.2 38.6-27.3 69.5 92.3 89.8 218.3 145.2 357.3 145.2z" fill="#d0d4d7"/><path d="m279.8 456c-2.8-28.8 12.8-54.4 35-57.5s42.5 17.8 45.6 46.6c2.8 28.8-12.8 54.4-35 57.5-22.4 3.1-42.7-17.9-45.6-46.6m145.6 171v148.7h172.2v-148.7h-87.2zm272.2-124.4c-22.2-2.5-37.2-27.8-33.4-56.6 3.7-28.8 24.7-50.3 46.9-47.8s37.2 27.8 33.4 56.6c-3.8 29-24.7 50.2-46.9 47.8" fill="#ffd9ac"/><path d="m512 213.7s-183.1 7.8-183.1 105.7v198.8c0 38.5 62.2 148.2 118.1 152.9 28.1 2.2 64.7 5.3 64.7 5.3s36.9-3.1 64.7-5.3c55.9-4.7 117.5-114.4 117.5-152.9v-193.6c.6-97.5-181.9-110.9-181.9-110.9" fill="#fee1b9"/><path d="m624.3 240.8c-51.4-22.7-112.3-27.1-112.3-27.1h-.3c-8 .4-182.8 10-182.8 105.7v198.8c0 38.5 62.2 148.2 118.1 152.9 28.1 2.2 64.7 5.3 64.7 5.3s36.9-3.1 64.7-5.3c55.9-4.7 118.1-114.4 118.1-152.9v-193.6c0-41.1-32.6-67.3-70.2-83.8" fill="#fee1b9"/><path d="m400.4 730.8 96.2 293c5.1.2 10.2.2 15.4.2 4.8 0 9.6-.1 14.4-.2l96.2-293-111.1 22.7z" fill="#d0d4d7"/><path d="m524.8 817.4 25.3-25.3-38.1-38.2-37.8 38.2 25.3 25.3-31.4 148.1 43.9 43.9 43.9-43.9z" fill="#436b85"/><path d="m512 753.6 89.7-45.3 46.2 27.2-75.3 107.5z" fill="#fff"/><path d="m512.3 753.6-89.7-45.3-46.2 27.2 90.9 107.5z" fill="#fff"/><g fill="#61402f"><path d="m703.2 437.2h-17.5l-23.4-162.6s53.1-20.9 64.1 43.2c10.9 63.8-23.2 119.4-23.2 119.4m-391.8 0h17.5l23.4-162.6s-53.1-20.9-64.1 43.2c-10.9 63.8 23.2 119.4 23.2 119.4"/><path d="m332.037 290.9s74.4 57.9 177.5 57.9 200.6-31.9 245-118.8c-2.5.6-79.1-13.1-175-86.3-120.7-92.3-347.2 44.6-247.5 147.2"/></g></svg>
